PathFileType	4	(X/Y/Z)	C:/Users/beibeiliu/ov580/test_trc/User3\sequence.30_training_dense_left.trc
DataRate	CameraRate	NumFrames	NumMarkers	Units	OrigDataRate	OrigDataStartFrame	OrigNumFrames
120	120	23	19	mm	120	150	239
Frame#	Time	ThumbCMC			ThumbMCP			ThumbIP			ThumbTip			IndexMCP			IndexPIP			IndexTip			MiddleMCP			MiddlePIP			MiddleTip			RingMCP			RingPIP			RingTip			PinkyMCP			PinkyPIP			PinkyTip			BackHand1			BackHand2			BackHand3	
		X0	Y0	Z0	X1	Y1	Z1	X2	Y2	Z2	X3	Y3	Z3	X4	Y4	Z4	X5	Y5	Z5	X6	Y6	Z6	X7	Y7	Z7	X8	Y8	Z8	X9	Y9	Z9	X10	Y10	Z10	X11	Y11	Z11	X12	Y12	Z12	X13	Y13	Z13	X14	Y14	Z14	X15	Y15	Z15	X16	Y16	Z16	X17	Y17	Z17	X18	Y18	Z18	
149	1.24167	-131.968	-28.7124	24.1034	-112.126	-40.2513	0.369897	-97.3134	-44.0113	-28.9669	-91.1273	-48.5658	-51.591	-120.763	4.77238	-46.7701	-115.012	-7.22275	-69.8315	-113.7	-38.8533	-83.5279	-143.146	16.599	-48.9409	-137.65	9.55026	-81.3708	-134.335	-28.8449	-99.1753	-164.49	16.4677	-47.998	-162.417	12.5547	-79.1767	-160.702	-9.89852	-97.3833	-189.212	5.82674	-38.6561	-190.793	9.35673	-64.696	-185.231	-7.13384	-89.1568	-180.322	10.557	1.21277	-189.826	0.625296	30.2404	-148.525	4.08074	24.3816	
150	1.25	-131.215	-31.7497	21.7503	-113.555	-44.0466	-4.03867	-99.6434	-51.3734	-25.1853	-91.7084	-57.5847	-47.6867	-121.772	-3.39852	-44.8566	-113.368	-24.3674	-70.0528	-122.83	-50.9684	-78.7241	-144.094	14.7148	-52.4753	-138.381	6.45994	-84.2918	-134.61	-18.36	-104.2	-160.289	16.8675	-47.7625	-160.396	16.8184	-76.9589	-158.339	0.522756	-101.089	-189.29	8.89343	-36.9377	-187.4	13.9163	-62.6572	-186.762	9.58564	-89.8854	-175.661	7.02864	5.29028	-184.817	-0.33523	30.2249	-146.505	1.51417	24.4563	
151	1.25833	-126.887	-36.9441	22.3395	-117.53	-46.9884	-3.58233	-99.8411	-55.8483	-29.3198	-96.9881	-61.3017	-50.065	-122.476	-9.7237	-45.1345	-118.963	-31.4448	-69.3598	-128.373	-61.2944	-74.4402	-144.677	10.4661	-49.8269	-138.041	8.00116	-82.6815	-134.744	-14.6056	-110.806	-162.085	15.1996	-48.0169	-158.948	17.705	-74.9282	-158.461	10.6669	-99.6597	-184.409	7.42147	-36.1018	-187.588	16.0207	-58.1583	-188.405	18.2611	-81.0679	-175.596	8.22948	1.74309	-184.58	0.135821	29.836	-147.682	-0.929988	19.3186	
152	1.26667	-128.763	-40.4083	22.3073	-118.033	-53.7277	0.358778	-102.898	-61.7618	-25.6463	-97.7602	-67.8429	-47.137	-121.729	-17.594	-47.8479	-119.665	-40.6754	-69.2488	-129.718	-66.7036	-72.8863	-143.855	7.56455	-51.855	-136.39	5.70898	-81.5916	-136.264	-9.29268	-111.376	-161.318	10.175	-44.3101	-159.664	16.9536	-70.5956	-158.288	13.4434	-102.288	-188.252	4.85899	-34.3511	-183.864	14.3259	-55.7448	-185.408	20.3071	-78.4616	-174.183	2.77996	4.35419	-179.196	-1.05849	31.8126	-146.51	-5.04388	21.949	
153	1.275	-131.918	-42.6885	22.571	-116.853	-57.0833	-1.26268	-109.133	-63.0899	-28.5742	-103.436	-71.7112	-47.4567	-127.379	-19.764	-46.7831	-123.629	-46.7823	-71.3927	-136.567	-73.7257	-72.1332	-141.273	4.44566	-54.6122	-139.523	3.03392	-82.0281	-133.915	-9.70994	-112.561	-166.402	7.28655	-43.9569	-160.463	15.7808	-72.5246	-157.185	14.4099	-96.7034	-185.146	0.499864	-33.8073	-187.405	13.1175	-56.4266	-187.647	20.7725	-75.4426	-175.024	1.83477	0.0883731	-181.809	-2.61788	32.8231	-146.334	-6.95807	22.8092	
154	1.28333	-132.567	-45.1356	21.7078	-117.458	-60.5136	-4.66241	-109.079	-68.2711	-33.738	-111.165	-72.7046	-53.4526	-124.735	-26.035	-51.9711	-128.737	-48.0408	-72.167	-137.283	-74.5081	-74.1838	-146.083	0.607948	-54.0774	-138.035	-0.750546	-82.3432	-134.671	-11.5245	-115.521	-162.581	2.35016	-43.6772	-162.683	11.8962	-73.9338	-159.765	12.518	-99.1383	-189.258	-2.51459	-32.7273	-185.436	10.1685	-54.6355	-190.031	17.1524	-73.1765	-172.596	-1.65056	2.56382	-181.441	-5.49281	32.9346	-143.944	-11.0119	18.6501	
155	1.29167	-132.886	-48.4325	23.229	-125.083	-60.6836	-8.12698	-115.381	-71.2789	-34.3325	-113.112	-77.4073	-58.8075	-124.921	-28.152	-49.3627	-125.536	-51.485	-73.9325	-136.829	-78.4814	-77.888	-144.89	-1.72905	-54.0613	-137.739	-4.24038	-86.4664	-137.064	-11.6723	-114.484	-162.97	0.853056	-45.4956	-164.047	9.97698	-70.9716	-159.908	10.4895	-99.3854	-187.38	-2.63623	-35.1626	-190.632	7.46662	-54.3342	-192.137	16.8924	-73.3651	-171.678	-2.73489	2.1368	-178.373	-5.27614	33.466	-146.802	-10.7158	20.6226	
156	1.3	-132.684	-51.072	18.4478	-127.705	-64.4872	-8.50831	-119.278	-76.3532	-37.5607	-118.827	-85.8173	-57.6188	-130.479	-29.1612	-54.7642	-129.828	-49.0462	-76.6953	-138.208	-75.9129	-83.5678	-147.28	-2.72556	-57.9055	-141.34	-4.4356	-84.8345	-139.634	-12.274	-117.193	-167.675	1.66377	-48.6999	-160.571	6.58669	-73.6344	-161.618	7.76649	-101.499	-187.76	-7.83037	-32.38	-189.421	4.29806	-52.4464	-195.805	15.181	-73.9779	-173.24	-5.17665	-0.233932	-176.836	-7.77031	29.8972	-146.359	-13.253	14.87	
157	1.30833	-131.989	-54.345	20.5309	-130.382	-70.7563	-6.33399	-124.927	-82.7899	-37.697	-130.182	-88.7801	-59.6507	-127.315	-30.3204	-53.3854	-128.195	-47.2849	-77.5322	-135.385	-75.2015	-90.0433	-150.364	-6.13649	-55.0492	-141.471	-7.00469	-85.9152	-141.648	-13.8479	-119.971	-171.117	-2.88622	-49.2004	-164.524	1.92085	-74.4599	-165.26	2.33864	-104.007	-191.076	-7.37442	-34.5499	-191.091	1.41901	-54.1151	-191.651	7.09553	-77.9221	-176.797	-5.62887	-1.90463	-180.356	-7.91194	29.02	-143.31	-16.6949	17.0154	
158	1.31667	-135.401	-53.5899	16.7878	-129.965	-73.7398	-10.4595	-130.332	-85.3549	-34.5693	-133.195	-95.3843	-56.3693	-131.154	-27.7849	-56.1383	-128.434	-43.9153	-81.469	-133.782	-67.1238	-95.8508	-149.527	-6.57119	-59.6683	-145.213	-6.55335	-83.5493	-144.486	-12.7184	-116.101	-172.229	-4.61261	-53.2468	-167.324	-2.03796	-76.6302	-170.282	-3.54613	-102.449	-194.255	-10.6129	-37.1675	-197.111	-4.76094	-56.7842	-196.7	-2.64361	-83.9275	-178.487	-9.82395	0.620296	-183.546	-8.92454	28.83	-145.904	-15.4707	14.5747	
159	1.325	-134.865	-52.2442	19.5073	-128.517	-73.748	-10.3118	-127.128	-87.825	-36.748	-131.985	-99.4113	-56.2264	-131.211	-24.6566	-52.3706	-126.692	-37.3469	-85.0238	-130.446	-56.6443	-99.0194	-157.699	-7.4569	-56.2691	-152.564	-5.34634	-87.458	-146.981	-12.9895	-119.036	-179.303	-12.0219	-52.8481	-172.822	-9.4279	-79.9555	-174.259	-17.4446	-107.08	-195.637	-19.7055	-39.5488	-196	-17.6455	-62.7961	-195.958	-19.2748	-86.0076	-184.123	-10.7523	-1.02578	-188.061	-10.4518	25.5692	-153.28	-13.9782	11.7518	
160	1.33333	-136.979	-46.1666	20.5555	-126.461	-68.8573	-5.5963	-120.328	-87.7321	-30.7595	-124.948	-101.855	-53.5815	-139.593	-18.4448	-55.4348	-129.207	-25.5752	-82.8365	-124.324	-47.6028	-104.084	-162.723	-8.46794	-59.494	-158.367	-6.99085	-88.8303	-154.286	-17.089	-123.004	-183.552	-21.0255	-52.9431	-184.331	-23.1531	-86.5812	-181.112	-36.4935	-107.275	-201.211	-34.5117	-43.0435	-199.445	-39.0896	-71.7489	-192.17	-50.5004	-92.1589	-186.677	-15.3526	-7.18735	-190.893	-16.5098	24.2045	-157.215	-11.4719	12.6172	
161	1.34167	-137.672	-41.3423	20.3315	-121.839	-66.9082	-2.91289	-117.863	-84.9025	-27.9024	-118.768	-100.418	-47.6184	-139.05	-15.3246	-52.1844	-128.999	-17.8516	-79.9413	-123.26	-38.2365	-104.134	-169.207	-12.1933	-56.6048	-166.218	-8.48867	-88.8603	-159.151	-18.7752	-120.649	-187.014	-26.239	-57.7457	-180.782	-32.7766	-84.8286	-176.406	-56.3405	-106.276	-200.107	-44.6561	-44.2972	-193.924	-54.291	-67.4035	-189.335	-73.9831	-84.6367	-192.314	-19.8335	-8.77118	-199.933	-20.0297	20.2439	-165.962	-11.552	8.9027	
162	1.35	-138.937	-39.6898	19.4942	-122.495	-64.7608	-3.12926	-113.637	-83.7224	-22.8578	-116.521	-97.509	-42.5063	-138.857	-11.9164	-51.0368	-129.498	-15.7303	-83.542	-119.057	-31.6202	-104.403	-169.68	-9.82614	-59.3269	-162.566	-7.20023	-91.4919	-155.049	-19.6109	-120.354	-181.791	-29.6426	-61.1493	-178.779	-41.1463	-85.313	-170.04	-65.5656	-99.9572	-197.145	-50.0629	-49.6336	-191.478	-67.7175	-67.256	-178.119	-91.6726	-76.2387	-193.983	-20.6831	-7.84376	-199.988	-20.1202	19.0301	-163.377	-10.0555	11.9447	
163	1.35833	-136.538	-40.3135	19.678	-123.326	-63.4092	0.709587	-111.891	-83.3622	-25.9724	-113.269	-98.0926	-41.481	-137.913	-12.0397	-50.6568	-126.968	-12.8433	-81.0437	-116.398	-25.9769	-100.848	-166.416	-9.74141	-58.6144	-164.53	-8.52784	-87.984	-152.499	-20.7843	-118.172	-181.526	-31.7243	-57.982	-174.051	-43.0408	-84.2887	-161.174	-72.3323	-93.7925	-192.85	-52.5453	-47.6254	-184.684	-72.1713	-63.6613	-174.459	-95.3159	-62.7066	-194.406	-19.3023	-7.75863	-197.432	-19.7716	21.9169	-162.984	-11.5092	13.5335	
164	1.36667	-137.948	-40.8292	19.4705	-123.219	-63.9102	0.874917	-114.665	-81.3386	-24.246	-110.594	-96.8777	-42.0026	-135.027	-9.71448	-50.4431	-122.602	-9.25426	-77.7247	-114.346	-22.743	-98.2151	-163.584	-9.28349	-55.8925	-161.188	-8.45765	-89.6266	-152.134	-25.7601	-119.724	-179.061	-31.9871	-59.2927	-174.38	-48.2787	-84.5456	-160.396	-74.9556	-86.645	-194.384	-54.5253	-47.1639	-179.155	-76.5166	-59.5908	-164.839	-98.6627	-49.2653	-193.195	-21.0609	-7.82345	-201.503	-20.8994	22.6146	-163.206	-10.4965	9.99285	
165	1.375	-135.621	-40.8762	19.5617	-123.435	-63.0173	-0.632068	-111.518	-81.0208	-25.185	-109.86	-95.4547	-43.2493	-134.872	-9.96249	-45.9595	-123.784	-8.78436	-78.3292	-113.999	-20.2117	-99.7341	-165.009	-10.3243	-58.3978	-157.963	-10.0669	-92.2359	-144.825	-28.9357	-117.768	-174.124	-32.1909	-60.477	-167.398	-53.2974	-84.0356	-156.721	-80.2787	-78.44	-188.707	-55.5295	-49.5946	-181.32	-80.5868	-55.9472	-166.019	-95.5127	-37.6767	-194.201	-19.072	-9.0363	-198.15	-18.9187	18.8356	-166.231	-10.9423	10.101	
166	1.38333	-133.734	-41.207	20.5186	-118.403	-63.3175	0.94535	-103.926	-79.7233	-22.8872	-107.792	-92.7854	-42.5036	-134.214	-10.1353	-44.92	-120.702	-4.77327	-75.6162	-104.795	-14.5122	-98.9267	-161.447	-9.55493	-61.3035	-153.258	-13.5986	-92.4784	-140.908	-38.6914	-115.591	-177.398	-35.4594	-60.8715	-164.305	-56.2047	-80.6888	-157.3	-84.8355	-68.0058	-188.405	-60.893	-51.0749	-172.215	-82.4775	-50.0197	-165.162	-95.4902	-26.6508	-194.026	-20.3085	-9.80965	-196.777	-21.1	19.9365	-160.592	-12.1703	9.31147	
167	1.39167	-134.427	-40.7666	24.9894	-117.417	-62.0175	-0.0441025	-101.564	-77.5494	-17.1912	-99.135	-92.805	-39.7785	-131.682	-6.51022	-46.428	-118.987	-1.48425	-73.52	-104.618	-8.71942	-96.256	-159.859	-13.6636	-61.6655	-149.103	-18.7331	-90.8457	-137.073	-50.9351	-109.001	-171.055	-37.9669	-58.5895	-160.738	-63.8571	-77.5387	-153.163	-88.538	-55.191	-184.373	-59.0854	-49.0022	-173.046	-85.4662	-47.0053	-166.012	-93.0404	-18.914	-191.517	-20.5757	-12.8275	-197.746	-23.0568	18.5997	-160.444	-13.0962	8.58885	
168	1.4	-136.188	-41.0428	21.5513	-117.279	-60.5298	6.52461	-101.768	-75.3893	-17.3726	-91.6436	-89.8413	-34.4159	-130.305	-7.38012	-43.0282	-117.27	0.651779	-70.6554	-103.601	-2.93397	-93.3577	-152.837	-15.9994	-62.6208	-142.659	-25.9575	-90.9689	-128.765	-63.9715	-100.096	-166.3	-44.3135	-63.6011	-153.306	-69.7077	-71.1491	-150.009	-88.1322	-47.4973	-182.504	-61.8887	-49.3309	-166.666	-86.0576	-42.9306	-163.53	-86.1765	-16.2813	-189.769	-22.0847	-11.7069	-199.455	-24.314	15.8175	-161.492	-11.4477	11.0852	
169	1.40833	-133.41	-40.4455	28.2749	-116.884	-58.2921	4.18977	-98.7468	-71.4019	-15.461	-88.8335	-84.6812	-29.0196	-128.635	-7.55574	-41.2102	-112.945	2.28909	-65.2678	-100.052	-0.156231	-87.4605	-151.597	-20.29	-62.1203	-132.389	-35.0122	-88.6806	-123.44	-69.7307	-88.458	-164.212	-44.8112	-58.8235	-154.369	-75.2385	-67.8489	-150.685	-90.8584	-34.394	-177.038	-61.4099	-49.7372	-168.243	-87.1534	-41.7568	-166.049	-84.4956	-13.3458	-186.762	-22.629	-11.8169	-197.241	-21.6097	17.2617	-162.881	-12.5541	9.83809	
170	1.41667	-132.004	-38.3283	24.9572	-110.462	-55.597	10.5291	-93.3404	-66.4209	-6.78845	-81.1014	-79.9559	-27.8523	-126.849	-6.9299	-43.6129	-113.77	1.29117	-65.0994	-99.8672	-0.375155	-89.4858	-145.228	-24.1714	-64.7993	-125.025	-44.2811	-84.8292	-124.403	-79.0614	-74.8248	-160.079	-50.9712	-62.3336	-147.581	-79.3836	-60.8654	-147.951	-89.0439	-32.4881	-179.049	-62.5715	-50.893	-163.935	-84.0611	-45.1681	-163.127	-80.1114	-12.9014	-188.319	-24.9623	-13.779	-199.064	-23.4516	14.5464	-162.691	-12.718	10.7349	
171	1.425	-132.194	-36.0664	28.554	-112.499	-51.4792	10.4321	-91.7329	-60.4474	-9.09587	-78.8587	-70.1036	-21.6762	-124.325	-7.70057	-43.8801	-114.25	-2.2493	-66.8236	-99.2662	-4.07942	-91.657	-139.805	-28.6686	-62.8369	-122.86	-49.7906	-78.7188	-120.484	-86.4804	-59.283	-155.405	-49.2875	-57.9666	-145.629	-77.4016	-61.156	-145.955	-88.45	-25.496	-177.046	-60.3571	-50.5236	-160.528	-84.8551	-47.2978	-159.277	-83.7795	-19.1713	-185.235	-24.442	-17.7272	-197.503	-22.7417	16.4352	-158.151	-13.0479	12.8646	
